<?xml version="1.0" encoding="UTF-8" standalone="no"?>
<!DOCTYPE svg PUBLIC "-//W3C//DTD SVG 1.1//EN" "http://www.w3.org/Graphics/SVG/1.1/DTD/svg11.dtd">
<svg version="1.1" xmlns="http://www.w3.org/2000/svg" xmlns:xlink="http://www.w3.org/1999/xlink" preserveAspectRatio="xMidYMid meet" viewBox="0 0 640 640" width="800" height="800"><defs><path d="M391.64 86.41C396.43 86.41 400.31 90.3 400.31 95.09C400.31 126.35 400.31 211.47 400.31 242.74C400.31 247.53 396.43 251.41 391.64 251.41C353.37 251.41 247.25 251.41 208.99 251.41C204.2 251.41 200.31 247.53 200.31 242.74C200.31 211.47 200.31 126.35 200.31 95.09C200.31 90.3 204.2 86.41 208.99 86.41C247.25 86.41 353.37 86.41 391.64 86.41Z" id="e3VPcQm0WO"></path><path d="M430.65 86.41C435.44 86.41 439.32 90.3 439.32 95.09C439.32 126.35 439.32 211.47 439.32 242.74C439.32 247.53 435.44 251.41 430.65 251.41C392.38 251.41 286.26 251.41 248 251.41C243.2 251.41 239.32 247.53 239.32 242.74C239.32 211.47 239.32 126.35 239.32 95.09C239.32 90.3 243.2 86.41 248 86.41C286.26 86.41 392.38 86.41 430.65 86.41Z" id="e3m1zavRzS"></path><path d="M410.04 86.41C415.54 86.41 420 90.87 420 96.37C420 127.78 420 212.04 420 243.45C420 248.95 415.54 253.41 410.04 253.41C372.03 253.41 267.97 253.41 229.96 253.41C224.46 253.41 220 248.95 220 243.45C220 212.04 220 127.78 220 96.37C220 90.87 224.46 86.41 229.96 86.41C267.97 86.41 372.03 86.41 410.04 86.41Z" id="d2kuH9LMR"></path><path d="M312.5 119.91L327.5 119.91L327.5 219.91L312.5 219.91L312.5 119.91Z" id="f4wi9fGrtW"></path><path d="M270 162.41L370 162.41L370 177.41L270 177.41L270 162.41Z" id="aKttJXxcA"></path></defs><g><g><g><use xlink:href="#e3VPcQm0WO" opacity="1" fill="#17d4ec" fill-opacity="1"></use><g><use xlink:href="#e3VPcQm0WO" opacity="1" fill-opacity="0" stroke="#79cafe" stroke-width="0" stroke-opacity="1"></use></g></g><g><use xlink:href="#e3m1zavRzS" opacity="1" fill="#f42d68" fill-opacity="1"></use><g><use xlink:href="#e3m1zavRzS" opacity="1" fill-opacity="0" stroke="#79cafe" stroke-width="0" stroke-opacity="1"></use></g></g><g><use xlink:href="#d2kuH9LMR" opacity="1" fill="#ffffff" fill-opacity="1"></use><use xlink:href="#d2kuH9LMR" opacity="1" fill="#ffffff" fill-opacity="1"></use></g><g><g><use xlink:href="#f4wi9fGrtW" opacity="1" fill="#563c4c" fill-opacity="1"></use></g><g><use xlink:href="#aKttJXxcA" opacity="1" fill="#563c4c" fill-opacity="1"></use></g></g></g></g></svg>